<?xml version="1.0" encoding="utf-8"?>
<!-- Generator: Adobe Illustrator 24.3.0, SVG Export Plug-In . SVG Version: 6.00 Build 0)  -->
<svg version="1.1" id="Layer_1" xmlns="http://www.w3.org/2000/svg" xmlns:xlink="http://www.w3.org/1999/xlink" x="0px" y="0px"
	 viewBox="0 0 100 100" style="enable-background:new 0 0 100 100;" xml:space="preserve">
<style type="text/css">
	.st0{display:none;}
	.st1{display:inline;fill:#FFFFFF;}
	.st2{fill:#FFFFFF;}
</style>
<g class="st0">
	<path class="st1" d="M19.95,29.09h0.02l3.28,2.75v52.24c0,2.56,2.07,4.63,4.63,4.63h44.05c2.56,0,4.63-2.07,4.63-4.63V31.84
		l3.28-2.75h0.02V24.5H19.95V29.09z M60.38,36.33h5.59v44.93h-5.59V36.33z M47.12,36.33h5.59v44.93h-5.59V36.33z M33.86,36.33h5.59
		v44.93h-5.59V36.33z"/>
	<path class="st1" d="M78.89,17.91H59.37v-4.57c0-1.04-0.84-1.88-1.89-1.88H42.34c-1.04,0-1.88,0.84-1.88,1.88v4.57H20.94
		c-0.62,0-1.13,0.5-1.13,1.13v3.6h60.2v-3.6C80.01,18.41,79.51,17.91,78.89,17.91z M55.93,16.76H43.89V15.5c0-0.33,0.27-0.6,0.6-0.6
		h10.84c0.33,0,0.6,0.27,0.6,0.6V16.76z"/>
</g>
<g>
	<rect x="18.18" y="81.81" class="st2" width="60.82" height="2.94"/>
	<polygon class="st2" points="19.35,80.42 23.47,67.55 31.1,73.79 	"/>
	<path class="st2" d="M24.06,66.19c0,0,8.01-12.97,13.4-19.78l11.13,8.96c0,0-13.05,15.47-16.39,17.75L24.06,66.19z"/>
	<polygon class="st2" points="61.48,15.43 81.65,15.43 49.41,54.09 38.22,45.37 	"/>
</g>
</svg>
