<?xml version="1.0" encoding="utf-8"?>
<!-- Generator: Adobe Illustrator 24.3.0, SVG Export Plug-In . SVG Version: 6.00 Build 0)  -->
<svg version="1.1" xmlns="http://www.w3.org/2000/svg" xmlns:xlink="http://www.w3.org/1999/xlink" x="0px" y="0px"
	 viewBox="0 0 100 100" style="enable-background:new 0 0 100 100;" xml:space="preserve">
<style type="text/css">
	.st0{display:none;}
	.st1{display:inline;}
	.st2{fill:#FFFFFF;}
</style>
<g id="Layer_1" class="st0">
	<g class="st1">
		<g>
			<path class="st2" d="M24.26,25.87c-8.19,0-14.86,6.67-14.86,14.86c0,8.19,6.67,14.86,14.86,14.86c5.33,0,10.01-2.83,12.63-7.06
				c-2.05-3.34-4.72-9.38-1.58-17.7C32.59,27.8,28.65,25.87,24.26,25.87z"/>
			<path class="st2" d="M34.45,53.53c-0.18,0.14-0.41,0.31-0.65,0.48c-1.46,3.86-5.18,6.62-9.55,6.62c-4.41,0-8.15-2.8-9.58-6.71
				c-0.46-0.33-0.82-0.61-1.02-0.78c-0.07-0.07-0.15-0.13-0.23-0.2l-0.13,0.11c-9.25,8-9.12,22-9.11,22.59l0.01,0.5h23.54
				c0.36-5.43,1.96-15.08,8.45-22.22c-0.47-0.43-0.87-0.73-1.12-0.91c-0.13,0.12-0.26,0.23-0.39,0.35
				C34.58,53.42,34.51,53.47,34.45,53.53z"/>
		</g>
		<g>
			<path class="st2" d="M64.97,52.5c-0.15,0.13-0.3,0.27-0.45,0.4c-0.07,0.06-0.15,0.12-0.22,0.19c-1.45,1.16-4.8,3.33-9.2,4.03
				c-0.44,0.06-0.87,0.13-1.32,0.16c-0.38,0.02-0.75,0.04-1.14,0.04c-1.39,0-2.73-0.16-4.03-0.46c-4.11-1.04-7.24-3.47-8.13-4.21
				c-0.08-0.08-0.18-0.14-0.26-0.22l-0.15,0.13C29.47,61.7,29.62,77.73,29.63,78.41l0.01,0.57h45.33l-0.02-0.6
				C74.19,59.85,66.79,53.73,64.97,52.5z M58.67,65.04L52.3,61.8l-6.37,3.25v-7.88l6.37,3.4l6.37-3.4V65.04z"/>
		</g>
		<g>
			<g>
				<path class="st2" d="M35.7,38.23c0,9.38,7.64,17.02,17.03,17.02h0.01c4.54,0,8.81-1.78,12.03-4.99
					c3.22-3.22,4.99-7.5,4.99-12.04c0-9.39-7.64-17.02-17.03-17.02C43.33,21.21,35.7,28.85,35.7,38.23z"/>
			</g>
		</g>
		<path class="st2" d="M76.67,75.29l19.1,0l0.01-0.45c0.01-0.53-0.18-12.42-8.49-19.61l-0.11-0.1c-0.27,0.25-0.55,0.49-0.83,0.72
			l-5.91,11.51l-1.05-6.75l1.68-2.72c-1.07,0.26-2.19,0.4-3.34,0.4c-0.3,0-0.6-0.01-0.89-0.03c-0.54-0.03-1.07-0.1-1.6-0.19
			c-0.2-0.04-0.41-0.08-0.61-0.12l1.66,2.67l-1.1,6.43C76.08,70.17,76.48,73.21,76.67,75.29z"/>
		<path class="st2" d="M78.3,56.46c7.36,0,13.36-5.99,13.36-13.35c0-7.36-5.99-13.36-13.35-13.36c-3,0-5.77,0.99-8,2.67
			c0.69,1.91,1.07,3.97,1.07,6.12c0,4.47-1.65,8.55-4.36,11.7C69.4,53.97,73.56,56.45,78.3,56.46z"/>
	</g>
</g>
<g id="Layer_2" class="st0">
	<g class="st1">
		<path class="st2" d="M65.75,52.57c-0.18,0.17-0.37,0.33-0.56,0.49c-0.19,0.16-0.39,0.33-0.59,0.49c-0.41,0.33-0.83,0.64-1.26,0.94
			l-8.87,18.23l-1.77-10.5L55.33,58c-0.32,0.07-0.64,0.13-0.96,0.19c-0.83,0.15-1.67,0.25-2.53,0.3c-0.47,0.03-0.94,0.05-1.41,0.05
			c-1.82,0-3.59-0.22-5.29-0.63l2.66,4.31l-1.66,10.68l-9.83-19.32c-0.45-0.36-0.89-0.74-1.32-1.13l-0.18,0.16
			C21.65,64,21.83,83.92,21.85,84.76l0.01,0.71h56.32l-0.03-0.75C77.21,61.71,68.01,54.1,65.75,52.57z"/>
		<path class="st2" d="M50.43,14.71c-11.66,0-21.14,9.48-21.14,21.14c0,11.66,9.48,21.14,21.14,21.14
			c11.66,0,21.14-9.48,21.14-21.14C71.57,24.2,62.08,14.71,50.43,14.71z"/>
	</g>
</g>
<g id="Layer_3">
	<g>
		<path class="st2" d="M28.69,50.09c0,11.7,9.52,21.23,21.23,21.23c11.71,0,21.23-9.52,21.23-21.23c0-11.71-9.52-21.23-21.23-21.23
			C38.21,28.86,28.69,38.38,28.69,50.09z M64.71,48.8c0.71,8.17-5.33,15.37-13.5,16.08c-8.17,0.71-15.37-5.33-16.08-13.5
			c-0.71-8.17,5.33-15.37,13.5-16.08C56.8,34.59,64,40.63,64.71,48.8z"/>
		<path class="st2" d="M79.02,61.83l3.51-0.14c0.82-0.03,1.66-0.7,1.88-1.49l1.15-5.56c0.12-0.81-0.39-1.76-1.12-2.12l-3.16-1.53
			c-0.74-0.36-1.35-1.32-1.36-2.14c0,0-0.01-0.41-0.09-1.37c-0.03-0.33-0.03-0.33-0.03-0.33c-0.05-0.36,0.48-1.01,1.17-1.45
			l2.98-1.88c0.69-0.44,1.09-1.44,0.88-2.23l-1.76-5.39c-0.3-0.76-1.22-1.33-2.03-1.27l-3.52,0.25c-0.82,0.06-1.78-0.39-2.15-0.99
			c-0.37-0.61-1.13-2.72-0.75-3.44l1.64-3.11c0.38-0.72,0.22-1.79-0.36-2.37l-4.23-3.78c-0.64-0.51-1.72-0.55-2.4-0.09l-2.91,1.98
			c-0.68,0.46-1.74,0.56-2.36,0.22c-0.62-0.34-2.34-1.8-2.37-2.61l-0.14-3.51c-0.03-0.82-0.7-1.66-1.49-1.88l-5.56-1.16
			c-0.81-0.12-1.76,0.39-2.12,1.12l-1.53,3.16c-0.36,0.74-1.32,1.35-2.13,1.36c0,0-0.41,0.01-1.37,0.09
			c-0.33,0.03-0.33,0.03-0.33,0.03c-0.36,0.04-1.01-0.48-1.45-1.18l-1.88-2.98c-0.44-0.69-1.44-1.09-2.23-0.88l-5.39,1.76
			c-0.76,0.3-1.33,1.21-1.27,2.03l0.26,3.52c0.06,0.82-0.39,1.78-0.99,2.15c-0.6,0.37-2.71,1.13-3.44,0.75l-3.11-1.64
			c-0.72-0.38-1.79-0.22-2.37,0.35l-3.78,4.23c-0.51,0.64-0.55,1.72-0.09,2.4l1.98,2.91c0.46,0.68,0.56,1.74,0.22,2.35
			c-0.34,0.62-1.8,2.33-2.61,2.37l-3.51,0.14c-0.82,0.03-1.66,0.7-1.88,1.49l-1.15,5.56c-0.12,0.81,0.39,1.76,1.12,2.12l3.16,1.53
			c0.74,0.36,1.35,1.32,1.36,2.13c0,0,0.01,0.41,0.09,1.37c0.03,0.33,0.03,0.33,0.03,0.33c0.04,0.36-0.48,1.01-1.18,1.45l-2.98,1.88
			c-0.69,0.44-1.09,1.44-0.88,2.23l1.76,5.39c0.3,0.76,1.22,1.33,2.03,1.27l3.52-0.26c0.82-0.06,1.78,0.39,2.15,0.99
			c0.37,0.6,1.13,2.71,0.75,3.44l-1.64,3.11c-0.38,0.72-0.22,1.79,0.36,2.37l4.23,3.78c0.64,0.51,1.72,0.55,2.4,0.09l2.91-1.98
			c0.68-0.46,1.74-0.56,2.35-0.21c0.62,0.34,2.33,1.8,2.37,2.61l0.14,3.51c0.03,0.82,0.7,1.66,1.49,1.88l5.55,1.15
			c0.81,0.12,1.76-0.39,2.12-1.12l1.54-3.17c0.36-0.73,1.32-1.35,2.14-1.36c0,0,0.41-0.01,1.37-0.09c0.33-0.03,0.33-0.03,0.33-0.03
			c0.36-0.05,1.01,0.48,1.45,1.17l1.88,2.98c0.44,0.69,1.44,1.09,2.23,0.88l5.39-1.76c0.76-0.3,1.33-1.21,1.27-2.03l-0.25-3.52
			c-0.06-0.82,0.39-1.78,0.99-2.15c0.6-0.37,2.71-1.13,3.44-0.75l3.11,1.64c0.72,0.38,1.79,0.22,2.37-0.36l3.78-4.23
			c0.51-0.64,0.55-1.72,0.09-2.4l-1.98-2.91c-0.46-0.68-0.56-1.74-0.22-2.35C76.75,63.57,78.21,61.86,79.02,61.83z M49.91,74.28
			c-13.34,0-24.19-10.85-24.19-24.19c0-13.34,10.85-24.19,24.19-24.19c13.34,0,24.19,10.85,24.19,24.19
			C74.1,63.43,63.25,74.28,49.91,74.28z"/>
	</g>
</g>
</svg>
