<?xml version="1.0" encoding="utf-8"?>
<!-- Generator: Adobe Illustrator 24.3.0, SVG Export Plug-In . SVG Version: 6.00 Build 0)  -->
<svg version="1.1" id="Layer_1" xmlns="http://www.w3.org/2000/svg" xmlns:xlink="http://www.w3.org/1999/xlink" x="0px" y="0px"
	 viewBox="0 0 100 100" style="enable-background:new 0 0 100 100;" xml:space="preserve">
<style type="text/css">
	.st0{fill:#FFFFFF;}
</style>
<g>
	<g>
		<path class="st0" d="M24.26,25.87c-8.19,0-14.86,6.67-14.86,14.86c0,8.19,6.67,14.86,14.86,14.86c5.33,0,10.01-2.83,12.63-7.06
			c-2.05-3.34-4.72-9.38-1.58-17.7C32.59,27.8,28.65,25.87,24.26,25.87z"/>
		<path class="st0" d="M34.45,53.53c-0.18,0.14-0.41,0.31-0.65,0.48c-1.46,3.86-5.18,6.62-9.55,6.62c-4.41,0-8.15-2.8-9.58-6.71
			c-0.46-0.33-0.82-0.61-1.02-0.78c-0.07-0.07-0.15-0.13-0.23-0.2l-0.13,0.11c-9.25,8-9.12,22-9.11,22.59l0.01,0.5h23.54
			c0.36-5.43,1.96-15.08,8.45-22.22c-0.47-0.43-0.87-0.73-1.12-0.91c-0.13,0.12-0.26,0.23-0.39,0.35
			C34.58,53.42,34.51,53.47,34.45,53.53z"/>
	</g>
	<g>
		<path class="st0" d="M64.97,52.5c-0.15,0.13-0.3,0.27-0.45,0.4c-0.07,0.06-0.15,0.12-0.22,0.19c-1.45,1.16-4.8,3.33-9.2,4.03
			c-0.44,0.06-0.87,0.13-1.32,0.16c-0.38,0.02-0.75,0.04-1.14,0.04c-1.39,0-2.73-0.16-4.03-0.46c-4.11-1.04-7.24-3.47-8.13-4.21
			c-0.08-0.08-0.18-0.14-0.26-0.22l-0.15,0.13C29.47,61.7,29.62,77.73,29.63,78.41l0.01,0.57h45.33l-0.02-0.6
			C74.19,59.85,66.79,53.73,64.97,52.5z M58.67,65.04L52.3,61.8l-6.37,3.25v-7.88l6.37,3.4l6.37-3.4V65.04z"/>
	</g>
	<g>
		<g>
			<path class="st0" d="M35.7,38.23c0,9.38,7.64,17.02,17.03,17.02h0.01c4.54,0,8.81-1.78,12.03-4.99c3.22-3.22,4.99-7.5,4.99-12.04
				c0-9.39-7.64-17.02-17.03-17.02C43.33,21.21,35.7,28.85,35.7,38.23z"/>
		</g>
	</g>
	<path class="st0" d="M76.67,75.29l19.1,0l0.01-0.45c0.01-0.53-0.18-12.42-8.49-19.61l-0.11-0.1c-0.27,0.25-0.55,0.49-0.83,0.72
		l-5.91,11.51l-1.05-6.75l1.68-2.72c-1.07,0.26-2.19,0.4-3.34,0.4c-0.3,0-0.6-0.01-0.89-0.03c-0.54-0.03-1.07-0.1-1.6-0.19
		c-0.2-0.04-0.41-0.08-0.61-0.12l1.66,2.67l-1.1,6.43C76.08,70.17,76.48,73.21,76.67,75.29z"/>
	<path class="st0" d="M78.3,56.46c7.36,0,13.36-5.99,13.36-13.35c0-7.36-5.99-13.36-13.35-13.36c-3,0-5.77,0.99-8,2.67
		c0.69,1.91,1.07,3.97,1.07,6.12c0,4.47-1.65,8.55-4.36,11.7C69.4,53.97,73.56,56.45,78.3,56.46z"/>
</g>
</svg>
